<?xml version="1.0" encoding="UTF-8"?>
<svg xmlns="http://www.w3.org/2000/svg" xmlns:xlink="http://www.w3.org/1999/xlink" width="810pt" height="809.999993pt" viewBox="0 0 810 809.999993" version="1.2">
<defs>
<clipPath id="clip1">  
  <path d="M 168.757812 181.527344 L 641.570312 181.527344 L 641.570312 662.230469 L 168.757812 662.230469 Z M 168.757812 181.527344 "/>
</clipPath>
</defs>
<g id="surface1">
<rect x="0" y="0" width="810" height="809.999993" style="fill:rgb(100%,100%,100%);fill-opacity:1;stroke:none;"/>
<rect x="0" y="0" width="810" height="809.999993" style="fill:rgb(100%,100%,100%);fill-opacity:1;stroke:none;"/>
<rect x="0" y="0" width="810" height="809.999993" style="fill:rgb(4.708862%,7.839966%,25.099182%);fill-opacity:1;stroke:none;"/>
<g clip-path="url(#clip1)" clip-rule="nonzero">
<path style=" stroke:none;fill-rule:nonzero;fill:rgb(49.798584%,79.60968%,76.858521%);fill-opacity:1;" d="M 168.757812 229.628906 L 168.757812 529.503906 C 168.757812 556.019531 190.367188 577.613281 216.894531 577.613281 L 232.882812 577.613281 L 232.882812 662.234375 L 317.558594 577.613281 L 593.441406 577.613281 C 619.960938 577.613281 641.570312 556.019531 641.570312 529.503906 L 641.570312 229.628906 C 641.570312 203.121094 619.960938 181.527344 593.441406 181.527344 L 216.898438 181.527344 C 190.367188 181.527344 168.757812 203.121094 168.757812 229.632812 "/>
</g>
<path style=" stroke:none;fill-rule:nonzero;fill:rgb(100%,54.899597%,1.959229%);fill-opacity:1;" d="M 482.195312 354.023438 L 455.515625 354.023438 L 455.515625 309.597656 C 455.515625 279.597656 431.09375 255.183594 401.070312 255.183594 C 371.042969 255.183594 346.621094 279.597656 346.621094 309.597656 L 346.621094 354.023438 L 319.941406 354.023438 L 319.941406 309.597656 C 319.941406 264.898438 356.34375 228.523438 401.070312 228.523438 C 445.796875 228.523438 482.195312 264.898438 482.195312 309.597656 L 482.195312 354.023438 "/>
<path style=" stroke:none;fill-rule:nonzero;fill:rgb(100%,54.899597%,1.959229%);fill-opacity:1;" d="M 507.175781 375.96875 L 507.175781 504.265625 C 507.175781 516.351562 497.398438 526.121094 485.304688 526.121094 L 316.925781 526.121094 C 304.832031 526.121094 294.964844 516.351562 294.964844 504.265625 L 294.964844 375.96875 C 294.964844 363.882812 304.832031 354.023438 316.925781 354.023438 L 485.304688 354.023438 C 497.398438 354.023438 507.175781 363.882812 507.175781 375.96875 "/>
<path style=" stroke:none;fill-rule:nonzero;fill:rgb(92.939758%,95.289612%,95.289612%);fill-opacity:1;" d="M 426.023438 415.222656 C 426.023438 424.429688 421 432.511719 413.582031 436.863281 L 413.582031 481.414062 C 413.582031 488.292969 407.964844 493.835938 401.070312 493.835938 C 394.171875 493.835938 388.558594 488.292969 388.558594 481.414062 L 388.558594 436.863281 C 381.140625 432.511719 376.113281 424.429688 376.113281 415.222656 C 376.113281 401.441406 387.285156 390.285156 401.070312 390.285156 C 414.851562 390.285156 426.023438 401.441406 426.023438 415.222656 "/>
<path style=" stroke:none;fill-rule:nonzero;fill:rgb(92.939758%,95.289612%,95.289612%);fill-opacity:1;" d="M 446.542969 379.097656 L 400.921875 333.503906 L 423.878906 310.5625 L 469.503906 356.152344 L 446.542969 379.097656 "/>
<path style=" stroke:none;fill-rule:nonzero;fill:rgb(92.939758%,95.289612%,95.289612%);fill-opacity:1;" d="M 447.078125 378.5625 L 515.375 310.3125 L 492.40625 287.375 L 424.117188 355.609375 L 447.078125 378.5625 "/>
</g>
</svg>